<mxfile host="65bd71144e">
    <diagram id="h4c_oPhvg5Xy0MeqgZNS" name="Page-1">
        <mxGraphModel dx="2658" dy="255" grid="1" gridSize="10" guides="1" tooltips="1" connect="1" arrows="1" fold="1" page="1" pageScale="1" pageWidth="1100" pageHeight="850" math="0" shadow="0">
            <root>
                <mxCell id="0"/>
                <mxCell id="1" parent="0"/>
                <mxCell id="46" value="" style="edgeStyle=none;exitX=0.964;exitY=0.061;exitDx=0;exitDy=0;endArrow=oval;endFill=1;exitPerimeter=0;" parent="1" edge="1">
                    <mxGeometry relative="1" as="geometry">
                        <mxPoint x="-490" y="577" as="targetPoint"/>
                        <mxPoint x="-540.0000000000002" y="577.4399999999999" as="sourcePoint"/>
                    </mxGeometry>
                </mxCell>
                <mxCell id="47" value="ID_Venda" style="edgeLabel;align=center;verticalAlign=middle;resizable=0;points=[];fontSize=12;" parent="46" vertex="1" connectable="0">
                    <mxGeometry x="-0.6833" y="2" relative="1" as="geometry">
                        <mxPoint x="78" as="offset"/>
                    </mxGeometry>
                </mxCell>
                <mxCell id="3Tj_bvLMt_tm9WLvLGLQ-204" value="(1,1)" style="text;html=1;align=center;verticalAlign=middle;resizable=0;points=[];autosize=1;strokeColor=none;fillColor=none;" parent="1" vertex="1">
                    <mxGeometry x="-640" y="533.5" width="50" height="30" as="geometry"/>
                </mxCell>
                <mxCell id="4" value="&lt;b&gt;Fornecedor&lt;/b&gt;" style="rounded=1;whiteSpace=wrap;html=1;" parent="1" vertex="1">
                    <mxGeometry x="-1090" y="195" width="180" height="80" as="geometry"/>
                </mxCell>
                <mxCell id="3Tj_bvLMt_tm9WLvLGLQ-147" value="descricao" style="text;html=1;align=center;verticalAlign=middle;resizable=0;points=[];autosize=1;strokeColor=none;fillColor=none;" parent="1" vertex="1">
                    <mxGeometry x="-1267.5" y="760" width="80" height="30" as="geometry"/>
                </mxCell>
                <mxCell id="50" value="" style="edgeStyle=none;exitX=1;exitY=0.5;exitDx=0;exitDy=0;endArrow=oval;endFill=0;" parent="1" edge="1">
                    <mxGeometry relative="1" as="geometry">
                        <mxPoint x="-490" y="610" as="targetPoint"/>
                        <mxPoint x="-540" y="610" as="sourcePoint"/>
                    </mxGeometry>
                </mxCell>
                <mxCell id="51" value="ID_Cliente" style="edgeLabel;align=center;verticalAlign=middle;resizable=0;points=[];fontSize=12;" parent="50" vertex="1" connectable="0">
                    <mxGeometry x="-0.4584" y="-1" relative="1" as="geometry">
                        <mxPoint x="74" y="-1" as="offset"/>
                    </mxGeometry>
                </mxCell>
                <mxCell id="104" value="" style="edgeStyle=none;endArrow=oval;endFill=1;exitX=0.946;exitY=0.97;exitDx=0;exitDy=0;exitPerimeter=0;" parent="1" edge="1">
                    <mxGeometry relative="1" as="geometry">
                        <mxPoint x="-182" y="392" as="targetPoint"/>
                        <mxPoint x="-209.7199999999998" y="364.3" as="sourcePoint"/>
                        <Array as="points">
                            <mxPoint x="-209" y="392"/>
                        </Array>
                    </mxGeometry>
                </mxCell>
                <mxCell id="81" value="" style="edgeStyle=none;exitX=0.996;exitY=0.333;exitDx=0;exitDy=0;endArrow=oval;endFill=0;exitPerimeter=0;" parent="1" source="87" edge="1">
                    <mxGeometry relative="1" as="geometry">
                        <mxPoint x="-200" y="730" as="targetPoint"/>
                        <mxPoint x="-240" y="733" as="sourcePoint"/>
                    </mxGeometry>
                </mxCell>
                <mxCell id="82" value="nome" style="edgeLabel;align=center;verticalAlign=middle;resizable=0;points=[];" parent="81" vertex="1" connectable="0">
                    <mxGeometry x="-0.3874" y="-1" relative="1" as="geometry">
                        <mxPoint x="47" y="-3" as="offset"/>
                    </mxGeometry>
                </mxCell>
                <mxCell id="0jXfrChw-r6oneS9u3Ee-132" style="edgeStyle=none;html=1;exitX=0.106;exitY=0.984;exitDx=0;exitDy=0;endArrow=oval;endFill=0;entryX=0.165;entryY=-0.074;entryDx=0;entryDy=0;entryPerimeter=0;exitPerimeter=0;" parent="1" source="0jXfrChw-r6oneS9u3Ee-122" edge="1">
                    <mxGeometry relative="1" as="geometry">
                        <mxPoint x="-1005.95" y="817.78" as="targetPoint"/>
                        <mxPoint x="-978" y="794" as="sourcePoint"/>
                        <Array as="points"/>
                    </mxGeometry>
                </mxCell>
                <mxCell id="11" value="" style="edgeStyle=none;exitX=0.909;exitY=0.98;exitDx=0;exitDy=0;endArrow=oval;endFill=0;exitPerimeter=0;" parent="1" edge="1">
                    <mxGeometry relative="1" as="geometry">
                        <mxPoint x="-644" y="260" as="targetPoint"/>
                        <mxPoint x="-675.3800000000001" y="211.2" as="sourcePoint"/>
                        <Array as="points">
                            <mxPoint x="-674" y="260"/>
                        </Array>
                    </mxGeometry>
                </mxCell>
                <mxCell id="12" value="Nome" style="edgeLabel;align=center;verticalAlign=middle;resizable=0;points=[];" parent="11" vertex="1" connectable="0">
                    <mxGeometry x="0.5448" y="2" relative="1" as="geometry">
                        <mxPoint x="39" y="1" as="offset"/>
                    </mxGeometry>
                </mxCell>
                <mxCell id="QC1EbUprVl7dpRZCjpVZ-153" value="(n,n)" style="text;html=1;align=center;verticalAlign=middle;resizable=0;points=[];autosize=1;strokeColor=none;fillColor=none;" parent="1" vertex="1">
                    <mxGeometry x="-770" y="553.5" width="50" height="30" as="geometry"/>
                </mxCell>
                <mxCell id="17" style="edgeStyle=none;html=1;exitX=1.005;exitY=0.386;exitDx=0;exitDy=0;endArrow=oval;endFill=0;exitPerimeter=0;" parent="1" edge="1">
                    <mxGeometry relative="1" as="geometry">
                        <mxPoint x="-460" y="160" as="targetPoint"/>
                        <mxPoint x="-505.0999999999999" y="159.74" as="sourcePoint"/>
                    </mxGeometry>
                </mxCell>
                <mxCell id="18" value="Quantidade_Estoque" style="edgeLabel;align=center;verticalAlign=middle;resizable=0;points=[];" parent="17" vertex="1" connectable="0">
                    <mxGeometry x="-0.5748" y="-1" relative="1" as="geometry">
                        <mxPoint x="92" y="-2" as="offset"/>
                    </mxGeometry>
                </mxCell>
                <mxCell id="13" value="" style="edgeStyle=none;endArrow=oval;endFill=0;exitX=0.999;exitY=0.168;exitDx=0;exitDy=0;exitPerimeter=0;" parent="1" edge="1">
                    <mxGeometry relative="1" as="geometry">
                        <mxPoint x="-460" y="149" as="targetPoint"/>
                        <mxPoint x="-505.17999999999984" y="149.12" as="sourcePoint"/>
                    </mxGeometry>
                </mxCell>
                <mxCell id="14" value="Descrição" style="edgeLabel;align=center;verticalAlign=middle;resizable=0;points=[];" parent="13" vertex="1" connectable="0">
                    <mxGeometry x="0.3927" relative="1" as="geometry">
                        <mxPoint x="43" y="-1" as="offset"/>
                    </mxGeometry>
                </mxCell>
                <mxCell id="15" value="" style="edgeStyle=none;exitX=0.973;exitY=0.96;exitDx=0;exitDy=0;endArrow=oval;endFill=0;exitPerimeter=0;" parent="1" edge="1">
                    <mxGeometry relative="1" as="geometry">
                        <mxPoint x="-460" y="185" as="targetPoint"/>
                        <mxPoint x="-505.00000000000034" y="185.39999999999998" as="sourcePoint"/>
                    </mxGeometry>
                </mxCell>
                <mxCell id="16" value="Preço" style="edgeLabel;align=center;verticalAlign=middle;resizable=0;points=[];" parent="15" vertex="1" connectable="0">
                    <mxGeometry x="0.5027" relative="1" as="geometry">
                        <mxPoint x="31" y="-1" as="offset"/>
                    </mxGeometry>
                </mxCell>
                <mxCell id="43" value="" style="edgeStyle=none;exitX=0.5;exitY=1;exitDx=0;exitDy=0;endArrow=oval;endFill=0;" parent="1" source="4" edge="1">
                    <mxGeometry relative="1" as="geometry">
                        <mxPoint x="-1000" y="305" as="targetPoint"/>
                        <mxPoint x="-1040" y="365" as="sourcePoint"/>
                    </mxGeometry>
                </mxCell>
                <mxCell id="44" value="Data_Contrato" style="edgeLabel;align=center;verticalAlign=middle;resizable=0;points=[];" parent="43" vertex="1" connectable="0">
                    <mxGeometry x="-0.1662" y="-1" relative="1" as="geometry">
                        <mxPoint x="11" y="32" as="offset"/>
                    </mxGeometry>
                </mxCell>
                <mxCell id="58" value="" style="edgeStyle=none;exitX=0;exitY=0.75;exitDx=0;exitDy=0;endArrow=oval;endFill=0;" parent="1" source="2" edge="1">
                    <mxGeometry relative="1" as="geometry">
                        <mxPoint x="-720" y="619" as="targetPoint"/>
                    </mxGeometry>
                </mxCell>
                <mxCell id="59" value="Valor_Total" style="edgeLabel;align=center;verticalAlign=middle;resizable=0;points=[];fontSize=12;" parent="58" connectable="0" vertex="1">
                    <mxGeometry x="-0.3143" y="1" relative="1" as="geometry">
                        <mxPoint x="267" y="-60" as="offset"/>
                    </mxGeometry>
                </mxCell>
                <mxCell id="3" value="&lt;b&gt;Medicamento&lt;/b&gt;" style="rounded=1;whiteSpace=wrap;html=1;" parent="1" vertex="1">
                    <mxGeometry x="-685" y="125" width="180" height="90" as="geometry"/>
                </mxCell>
                <mxCell id="29" value="" style="edgeStyle=none;endArrow=oval;endFill=1;" parent="1" edge="1">
                    <mxGeometry relative="1" as="geometry">
                        <mxPoint x="-865" y="225" as="targetPoint"/>
                        <mxPoint x="-910" y="225" as="sourcePoint"/>
                    </mxGeometry>
                </mxCell>
                <mxCell id="30" value="ID_Fornecedor" style="edgeLabel;align=center;verticalAlign=middle;resizable=0;points=[];" parent="29" vertex="1" connectable="0">
                    <mxGeometry x="-0.4558" y="-3" relative="1" as="geometry">
                        <mxPoint x="79" y="-3" as="offset"/>
                    </mxGeometry>
                </mxCell>
                <mxCell id="33" value="" style="edgeStyle=none;exitX=1;exitY=0.5;exitDx=0;exitDy=0;endArrow=oval;endFill=0;" parent="1" edge="1">
                    <mxGeometry relative="1" as="geometry">
                        <mxPoint x="-870" y="250" as="targetPoint"/>
                        <mxPoint x="-910" y="250.00000000000006" as="sourcePoint"/>
                    </mxGeometry>
                </mxCell>
                <mxCell id="34" value="CNPJ" style="edgeLabel;align=center;verticalAlign=middle;resizable=0;points=[];" parent="33" vertex="1" connectable="0">
                    <mxGeometry x="-0.5818" relative="1" as="geometry">
                        <mxPoint x="62" as="offset"/>
                    </mxGeometry>
                </mxCell>
                <mxCell id="QC1EbUprVl7dpRZCjpVZ-169" value="(1,1)" style="text;html=1;align=center;verticalAlign=middle;resizable=0;points=[];autosize=1;strokeColor=none;fillColor=none;" parent="1" vertex="1">
                    <mxGeometry x="-1405" y="260" width="50" height="30" as="geometry"/>
                </mxCell>
                <mxCell id="37" value="" style="edgeStyle=none;exitX=0.861;exitY=1.025;exitDx=0;exitDy=0;endArrow=oval;endFill=0;exitPerimeter=0;" parent="1" edge="1">
                    <mxGeometry relative="1" as="geometry">
                        <mxPoint x="-870" y="208" as="targetPoint"/>
                        <mxPoint x="-910" y="208" as="sourcePoint"/>
                    </mxGeometry>
                </mxCell>
                <mxCell id="38" value="Email" style="edgeLabel;align=center;verticalAlign=middle;resizable=0;points=[];" parent="37" vertex="1" connectable="0">
                    <mxGeometry x="-0.4021" y="-2" relative="1" as="geometry">
                        <mxPoint x="47" y="-3" as="offset"/>
                    </mxGeometry>
                </mxCell>
                <mxCell id="39" value="" style="edgeStyle=none;exitX=0.946;exitY=1;exitDx=0;exitDy=0;endArrow=oval;endFill=0;exitPerimeter=0;" parent="1" source="4" edge="1">
                    <mxGeometry relative="1" as="geometry">
                        <mxPoint x="-920" y="320" as="targetPoint"/>
                        <Array as="points"/>
                    </mxGeometry>
                </mxCell>
                <mxCell id="40" value="Endereço" style="edgeLabel;align=center;verticalAlign=middle;resizable=0;points=[];" parent="39" vertex="1" connectable="0">
                    <mxGeometry x="-0.3023" y="1" relative="1" as="geometry">
                        <mxPoint x="1" y="41" as="offset"/>
                    </mxGeometry>
                </mxCell>
                <mxCell id="56" style="edgeStyle=none;html=1;exitX=0.882;exitY=1.026;exitDx=0;exitDy=0;endArrow=oval;endFill=0;exitPerimeter=0;" parent="1" edge="1">
                    <mxGeometry relative="1" as="geometry">
                        <mxPoint x="-521" y="668" as="targetPoint"/>
                        <mxPoint x="-562.24" y="638.5799999999999" as="sourcePoint"/>
                        <Array as="points">
                            <mxPoint x="-561" y="668"/>
                        </Array>
                    </mxGeometry>
                </mxCell>
                <mxCell id="57" value="Quantidade" style="edgeLabel;align=center;verticalAlign=middle;resizable=0;points=[];fontSize=12;" parent="56" vertex="1" connectable="0">
                    <mxGeometry x="0.44" y="-2" relative="1" as="geometry">
                        <mxPoint x="56" y="-3" as="offset"/>
                    </mxGeometry>
                </mxCell>
                <mxCell id="45" value="" style="edgeStyle=none;exitX=0.088;exitY=0.995;exitDx=0;exitDy=0;endArrow=oval;endFill=0;exitPerimeter=0;" parent="1" source="4" edge="1">
                    <mxGeometry x="1" y="-30" relative="1" as="geometry">
                        <mxPoint x="-1074" y="320" as="targetPoint"/>
                        <mxPoint x="29" y="22" as="offset"/>
                    </mxGeometry>
                </mxCell>
                <mxCell id="52" value="" style="edgeStyle=none;exitX=1;exitY=0.75;exitDx=0;exitDy=0;endArrow=oval;endFill=0;" parent="1" edge="1">
                    <mxGeometry relative="1" as="geometry">
                        <mxPoint x="-490" y="630" as="targetPoint"/>
                        <mxPoint x="-540.0000000000005" y="630" as="sourcePoint"/>
                    </mxGeometry>
                </mxCell>
                <mxCell id="53" value="ID_Produto" style="edgeLabel;align=center;verticalAlign=middle;resizable=0;points=[];fontSize=12;" parent="52" vertex="1" connectable="0">
                    <mxGeometry x="-0.335" y="-3" relative="1" as="geometry">
                        <mxPoint x="73" y="-3" as="offset"/>
                    </mxGeometry>
                </mxCell>
                <mxCell id="54" value="" style="edgeStyle=none;exitX=0.998;exitY=0.631;exitDx=0;exitDy=0;endArrow=oval;endFill=0;exitPerimeter=0;" parent="1" source="2" edge="1">
                    <mxGeometry relative="1" as="geometry">
                        <mxPoint x="-490" y="650" as="targetPoint"/>
                        <mxPoint x="-559.9999999999997" y="644.6400000000001" as="sourcePoint"/>
                        <Array as="points">
                            <mxPoint x="-540" y="650"/>
                        </Array>
                    </mxGeometry>
                </mxCell>
                <mxCell id="55" value="Tipo_Produto" style="edgeLabel;align=center;verticalAlign=middle;resizable=0;points=[];fontSize=12;" parent="54" vertex="1" connectable="0">
                    <mxGeometry x="-0.2938" relative="1" as="geometry">
                        <mxPoint x="96" y="9" as="offset"/>
                    </mxGeometry>
                </mxCell>
                <mxCell id="77" value="" style="edgeStyle=none;exitX=1;exitY=0.66;exitDx=0;exitDy=0;endArrow=oval;endFill=0;exitPerimeter=0;" parent="1" source="87" edge="1">
                    <mxGeometry relative="1" as="geometry">
                        <mxPoint x="-200" y="760" as="targetPoint"/>
                    </mxGeometry>
                </mxCell>
                <mxCell id="78" value="telefone" style="edgeLabel;align=center;verticalAlign=middle;resizable=0;points=[];" parent="77" vertex="1" connectable="0">
                    <mxGeometry x="-0.5748" y="-1" relative="1" as="geometry">
                        <mxPoint x="56" y="-2" as="offset"/>
                    </mxGeometry>
                </mxCell>
                <mxCell id="0jXfrChw-r6oneS9u3Ee-146" value="Compra" style="rhombus;whiteSpace=wrap;html=1;" parent="1" vertex="1">
                    <mxGeometry x="-350" y="518.5" width="170" height="80" as="geometry"/>
                </mxCell>
                <mxCell id="31" value="" style="edgeStyle=none;exitX=1;exitY=0.25;exitDx=0;exitDy=0;endArrow=oval;endFill=0;" parent="1" edge="1">
                    <mxGeometry relative="1" as="geometry">
                        <mxPoint x="-870" y="237" as="targetPoint"/>
                        <mxPoint x="-910" y="237.00000000000006" as="sourcePoint"/>
                    </mxGeometry>
                </mxCell>
                <mxCell id="32" value="Nome" style="edgeLabel;align=center;verticalAlign=middle;resizable=0;points=[];" parent="31" vertex="1" connectable="0">
                    <mxGeometry x="-0.4571" y="-3" relative="1" as="geometry">
                        <mxPoint x="49" y="-3" as="offset"/>
                    </mxGeometry>
                </mxCell>
                <mxCell id="0jXfrChw-r6oneS9u3Ee-138" value="id_hospital" style="text;html=1;align=center;verticalAlign=middle;resizable=0;points=[];autosize=1;strokeColor=none;fillColor=none;" parent="1" vertex="1">
                    <mxGeometry x="-1235" y="185" width="80" height="30" as="geometry"/>
                </mxCell>
                <mxCell id="106" style="edgeStyle=none;html=1;endArrow=oval;endFill=0;exitX=0.28;exitY=1.004;exitDx=0;exitDy=0;exitPerimeter=0;" parent="1" edge="1">
                    <mxGeometry relative="1" as="geometry">
                        <mxPoint x="-321" y="404.5" as="targetPoint"/>
                        <mxPoint x="-336.5999999999999" y="365.35999999999996" as="sourcePoint"/>
                        <Array as="points">
                            <mxPoint x="-336" y="404.5"/>
                        </Array>
                    </mxGeometry>
                </mxCell>
                <mxCell id="107" value="email" style="edgeLabel;align=center;verticalAlign=middle;resizable=0;points=[];" parent="106" vertex="1" connectable="0">
                    <mxGeometry x="0.2885" y="-2" relative="1" as="geometry">
                        <mxPoint x="14" y="14" as="offset"/>
                    </mxGeometry>
                </mxCell>
                <mxCell id="35" value="" style="edgeStyle=none;exitX=1;exitY=0.75;exitDx=0;exitDy=0;endArrow=oval;endFill=0;" parent="1" edge="1">
                    <mxGeometry relative="1" as="geometry">
                        <mxPoint x="-870" y="264" as="targetPoint"/>
                        <mxPoint x="-910" y="264.00000000000006" as="sourcePoint"/>
                    </mxGeometry>
                </mxCell>
                <mxCell id="36" value="Telefone" style="edgeLabel;align=center;verticalAlign=middle;resizable=0;points=[];" parent="35" vertex="1" connectable="0">
                    <mxGeometry x="-0.4909" y="-3" relative="1" as="geometry">
                        <mxPoint x="60" y="-3" as="offset"/>
                    </mxGeometry>
                </mxCell>
                <mxCell id="A4WGX2mWT120Y1MOlDbz-120" style="edgeStyle=orthogonalEdgeStyle;rounded=0;orthogonalLoop=1;jettySize=auto;html=1;exitX=0.468;exitY=0.997;exitDx=0;exitDy=0;endArrow=none;endFill=0;entryX=0;entryY=0.5;entryDx=0;entryDy=0;exitPerimeter=0;" parent="1" source="0jXfrChw-r6oneS9u3Ee-117" target="eocvYtC5DC_iUky7DLq_-112" edge="1">
                    <mxGeometry relative="1" as="geometry">
                        <mxPoint x="-1415" y="350.5" as="targetPoint"/>
                    </mxGeometry>
                </mxCell>
                <mxCell id="0jXfrChw-r6oneS9u3Ee-117" value="&lt;b&gt;Hospital&lt;/b&gt;" style="rounded=1;whiteSpace=wrap;html=1;" parent="1" vertex="1">
                    <mxGeometry x="-1480" y="178" width="180" height="90" as="geometry"/>
                </mxCell>
                <mxCell id="87" value="&lt;b&gt;Cliente&lt;/b&gt;" style="rounded=1;whiteSpace=wrap;html=1;" parent="1" vertex="1">
                    <mxGeometry x="-420" y="700" width="180" height="90" as="geometry"/>
                </mxCell>
                <mxCell id="3Tj_bvLMt_tm9WLvLGLQ-205" style="edgeStyle=orthogonalEdgeStyle;rounded=0;orthogonalLoop=1;jettySize=auto;html=1;exitX=0.5;exitY=1;exitDx=0;exitDy=0;entryX=0;entryY=0.5;entryDx=0;entryDy=0;endArrow=none;endFill=0;" parent="1" source="2" target="87" edge="1">
                    <mxGeometry relative="1" as="geometry"/>
                </mxCell>
                <mxCell id="0jXfrChw-r6oneS9u3Ee-141" value="(1,n)" style="edgeLabel;html=1;align=center;verticalAlign=middle;resizable=0;points=[];" parent="3Tj_bvLMt_tm9WLvLGLQ-205" connectable="0" vertex="1">
                    <mxGeometry x="0.8378" y="-5" relative="1" as="geometry">
                        <mxPoint x="6" y="10" as="offset"/>
                    </mxGeometry>
                </mxCell>
                <mxCell id="0jXfrChw-r6oneS9u3Ee-142" value="(1,1)" style="edgeLabel;html=1;align=center;verticalAlign=middle;resizable=0;points=[];" parent="3Tj_bvLMt_tm9WLvLGLQ-205" connectable="0" vertex="1">
                    <mxGeometry x="-0.9165" y="-2" relative="1" as="geometry">
                        <mxPoint x="22" y="-2" as="offset"/>
                    </mxGeometry>
                </mxCell>
                <mxCell id="83" value="" style="edgeStyle=none;exitX=0.947;exitY=0.003;exitDx=0;exitDy=0;endArrow=oval;endFill=1;exitPerimeter=0;" parent="1" edge="1">
                    <mxGeometry relative="1" as="geometry">
                        <mxPoint x="-200.46" y="718" as="targetPoint"/>
                        <mxPoint x="-239.99999999999997" y="718.2699999999999" as="sourcePoint"/>
                    </mxGeometry>
                </mxCell>
                <mxCell id="84" value="id_cliente" style="edgeLabel;align=center;verticalAlign=middle;resizable=0;points=[];labelBorderColor=none;labelBackgroundColor=none;html=1;" parent="83" vertex="1" connectable="0">
                    <mxGeometry x="-0.578" y="-3" relative="1" as="geometry">
                        <mxPoint x="60" y="-5" as="offset"/>
                    </mxGeometry>
                </mxCell>
                <mxCell id="3Tj_bvLMt_tm9WLvLGLQ-129" style="edgeStyle=orthogonalEdgeStyle;rounded=0;orthogonalLoop=1;jettySize=auto;html=1;exitX=0.994;exitY=0.186;exitDx=0;exitDy=0;endArrow=oval;endFill=0;exitPerimeter=0;" parent="1" source="3Tj_bvLMt_tm9WLvLGLQ-128" target="3Tj_bvLMt_tm9WLvLGLQ-131" edge="1">
                    <mxGeometry relative="1" as="geometry">
                        <mxPoint x="-967.5" y="466.44" as="targetPoint"/>
                        <Array as="points">
                            <mxPoint x="-997.5" y="473.44"/>
                            <mxPoint x="-997.5" y="461.44"/>
                        </Array>
                    </mxGeometry>
                </mxCell>
                <mxCell id="19" style="edgeStyle=none;html=1;exitX=1;exitY=0.5;exitDx=0;exitDy=0;endArrow=oval;endFill=0;" parent="1" edge="1">
                    <mxGeometry relative="1" as="geometry">
                        <mxPoint x="-460" y="173" as="targetPoint"/>
                        <mxPoint x="-505" y="173" as="sourcePoint"/>
                    </mxGeometry>
                </mxCell>
                <mxCell id="20" value="Validade" style="edgeLabel;align=center;verticalAlign=middle;resizable=0;points=[];html=1;" parent="19" vertex="1" connectable="0">
                    <mxGeometry x="-0.3878" y="-3" relative="1" as="geometry">
                        <mxPoint x="58" y="-3" as="offset"/>
                    </mxGeometry>
                </mxCell>
                <mxCell id="3Tj_bvLMt_tm9WLvLGLQ-145" value="receita" style="text;html=1;align=center;verticalAlign=middle;resizable=0;points=[];autosize=1;strokeColor=none;fillColor=none;" parent="1" vertex="1">
                    <mxGeometry x="-1257.5" y="728.44" width="60" height="30" as="geometry"/>
                </mxCell>
                <mxCell id="0jXfrChw-r6oneS9u3Ee-156" style="edgeStyle=orthogonalEdgeStyle;rounded=0;orthogonalLoop=1;jettySize=auto;html=1;exitX=1;exitY=0.5;exitDx=0;exitDy=0;entryX=0;entryY=0.5;entryDx=0;entryDy=0;endArrow=none;endFill=0;" parent="1" source="0jXfrChw-r6oneS9u3Ee-155" target="3Tj_bvLMt_tm9WLvLGLQ-191" edge="1">
                    <mxGeometry relative="1" as="geometry"/>
                </mxCell>
                <mxCell id="YscDw6zFbjl7nn_wglCq-112" value="(1,n)" style="edgeLabel;html=1;align=center;verticalAlign=middle;resizable=0;points=[];" parent="0jXfrChw-r6oneS9u3Ee-156" connectable="0" vertex="1">
                    <mxGeometry x="0.3969" y="4" relative="1" as="geometry">
                        <mxPoint x="7" y="-6" as="offset"/>
                    </mxGeometry>
                </mxCell>
                <mxCell id="A4WGX2mWT120Y1MOlDbz-117" style="edgeStyle=orthogonalEdgeStyle;rounded=0;orthogonalLoop=1;jettySize=auto;html=1;endArrow=oval;endFill=0;" parent="1" edge="1">
                    <mxGeometry relative="1" as="geometry">
                        <mxPoint x="-490" y="520.44" as="targetPoint"/>
                        <mxPoint x="-560" y="554" as="sourcePoint"/>
                        <Array as="points">
                            <mxPoint x="-560" y="559"/>
                            <mxPoint x="-560" y="520"/>
                        </Array>
                    </mxGeometry>
                </mxCell>
                <mxCell id="2" value="&lt;b&gt;Venda&lt;/b&gt;" style="rounded=1;whiteSpace=wrap;html=1;" parent="1" vertex="1">
                    <mxGeometry x="-720" y="558.5" width="180" height="80" as="geometry"/>
                </mxCell>
                <mxCell id="3Tj_bvLMt_tm9WLvLGLQ-191" value="&lt;b&gt;Tipo de Serviço&lt;br&gt;&lt;/b&gt;" style="rounded=1;whiteSpace=wrap;html=1;" parent="1" vertex="1">
                    <mxGeometry x="120" y="660" width="180" height="90" as="geometry"/>
                </mxCell>
                <mxCell id="0jXfrChw-r6oneS9u3Ee-120" style="edgeStyle=none;html=1;endArrow=oval;endFill=1;strokeColor=#FFFFFF;fillColor=#dae8fc;exitX=0.944;exitY=0.973;exitDx=0;exitDy=0;exitPerimeter=0;" parent="1" source="0jXfrChw-r6oneS9u3Ee-122" edge="1">
                    <mxGeometry relative="1" as="geometry">
                        <mxPoint x="-853" y="825" as="targetPoint"/>
                        <mxPoint x="-847.8799999999999" y="789.2400000000001" as="sourcePoint"/>
                        <Array as="points"/>
                    </mxGeometry>
                </mxCell>
                <mxCell id="3Tj_bvLMt_tm9WLvLGLQ-132" style="edgeStyle=orthogonalEdgeStyle;rounded=0;orthogonalLoop=1;jettySize=auto;html=1;exitX=0.994;exitY=0.338;exitDx=0;exitDy=0;endArrow=oval;endFill=1;exitPerimeter=0;" parent="1" source="3Tj_bvLMt_tm9WLvLGLQ-128" target="3Tj_bvLMt_tm9WLvLGLQ-133" edge="1">
                    <mxGeometry relative="1" as="geometry">
                        <mxPoint x="-957.5" y="501.72571428571433" as="targetPoint"/>
                        <Array as="points">
                            <mxPoint x="-1017.5" y="486.44"/>
                            <mxPoint x="-997.5" y="486.44"/>
                            <mxPoint x="-997.5" y="491.44"/>
                        </Array>
                    </mxGeometry>
                </mxCell>
                <mxCell id="25" value="" style="edgeStyle=none;endArrow=oval;endFill=0;exitX=0.997;exitY=0.834;exitDx=0;exitDy=0;exitPerimeter=0;" parent="1" source="3" edge="1">
                    <mxGeometry relative="1" as="geometry">
                        <mxPoint x="-460" y="200" as="targetPoint"/>
                        <mxPoint x="-500" y="200" as="sourcePoint"/>
                    </mxGeometry>
                </mxCell>
                <mxCell id="26" value="Categoria" style="edgeLabel;align=center;verticalAlign=middle;resizable=0;points=[];" parent="25" vertex="1" connectable="0">
                    <mxGeometry x="0.2885" y="-2" relative="1" as="geometry">
                        <mxPoint x="45" y="-3" as="offset"/>
                    </mxGeometry>
                </mxCell>
                <mxCell id="73" style="edgeStyle=none;html=1;exitX=0.25;exitY=1;exitDx=0;exitDy=0;endArrow=oval;endFill=0;" parent="1" edge="1">
                    <mxGeometry relative="1" as="geometry">
                        <mxPoint x="-200" y="820" as="targetPoint"/>
                        <mxPoint x="-240" y="790" as="sourcePoint"/>
                        <Array as="points">
                            <mxPoint x="-240" y="820"/>
                        </Array>
                    </mxGeometry>
                </mxCell>
                <mxCell id="74" value="historico_compras" style="edgeLabel;align=center;verticalAlign=middle;resizable=0;points=[];" parent="73" vertex="1" connectable="0">
                    <mxGeometry x="0.3927" relative="1" as="geometry">
                        <mxPoint x="72" y="-1" as="offset"/>
                    </mxGeometry>
                </mxCell>
                <mxCell id="3Tj_bvLMt_tm9WLvLGLQ-182" style="edgeStyle=orthogonalEdgeStyle;rounded=0;orthogonalLoop=1;jettySize=auto;html=1;exitX=0.998;exitY=0.36;exitDx=0;exitDy=0;exitPerimeter=0;endArrow=oval;endFill=0;" parent="1" source="3Tj_bvLMt_tm9WLvLGLQ-191" target="3Tj_bvLMt_tm9WLvLGLQ-186" edge="1">
                    <mxGeometry relative="1" as="geometry">
                        <Array as="points">
                            <mxPoint x="310" y="692"/>
                            <mxPoint x="310" y="705"/>
                        </Array>
                        <mxPoint x="300.3599999999999" y="692.52" as="sourcePoint"/>
                    </mxGeometry>
                </mxCell>
                <mxCell id="YscDw6zFbjl7nn_wglCq-111" value="(1,1)" style="text;html=1;align=center;verticalAlign=middle;resizable=0;points=[];autosize=1;strokeColor=none;fillColor=none;" parent="1" vertex="1">
                    <mxGeometry x="-340" y="675" width="50" height="30" as="geometry"/>
                </mxCell>
                <mxCell id="kwLEIUsejKFiPvClbxMu-200" style="edgeStyle=none;html=1;endArrow=oval;endFill=0;" parent="1" edge="1">
                    <mxGeometry relative="1" as="geometry">
                        <mxPoint x="-245" y="404.5" as="targetPoint"/>
                        <mxPoint x="-260" y="365" as="sourcePoint"/>
                        <Array as="points">
                            <mxPoint x="-260" y="404.5"/>
                        </Array>
                    </mxGeometry>
                </mxCell>
                <mxCell id="75" value="" style="edgeStyle=none;exitX=0.999;exitY=0.89;exitDx=0;exitDy=0;endArrow=oval;endFill=0;exitPerimeter=0;" parent="1" edge="1">
                    <mxGeometry relative="1" as="geometry">
                        <mxPoint x="-200" y="780" as="targetPoint"/>
                        <mxPoint x="-240.17999999999984" y="780.1" as="sourcePoint"/>
                    </mxGeometry>
                </mxCell>
                <mxCell id="76" value="email" style="edgeLabel;align=center;verticalAlign=middle;resizable=0;points=[];" parent="75" vertex="1" connectable="0">
                    <mxGeometry x="0.5027" relative="1" as="geometry">
                        <mxPoint x="28" y="-2" as="offset"/>
                    </mxGeometry>
                </mxCell>
                <mxCell id="3Tj_bvLMt_tm9WLvLGLQ-173" style="edgeStyle=orthogonalEdgeStyle;rounded=0;orthogonalLoop=1;jettySize=auto;html=1;endArrow=oval;endFill=0;exitX=1;exitY=0.368;exitDx=0;exitDy=0;exitPerimeter=0;" parent="1" source="3Tj_bvLMt_tm9WLvLGLQ-190" target="3Tj_bvLMt_tm9WLvLGLQ-177" edge="1">
                    <mxGeometry relative="1" as="geometry">
                        <Array as="points">
                            <mxPoint x="130" y="531.5"/>
                            <mxPoint x="130" y="543.5"/>
                        </Array>
                        <mxPoint x="110.41999999999985" y="526.8600000000001" as="sourcePoint"/>
                    </mxGeometry>
                </mxCell>
                <mxCell id="3Tj_bvLMt_tm9WLvLGLQ-194" value="(1,n)" style="text;html=1;align=center;verticalAlign=middle;resizable=0;points=[];autosize=1;strokeColor=none;fillColor=none;" parent="1" vertex="1">
                    <mxGeometry x="-1040" y="170" width="50" height="30" as="geometry"/>
                </mxCell>
                <mxCell id="92" value="" style="edgeStyle=none;endArrow=oval;endFill=0;exitX=0.813;exitY=0.989;exitDx=0;exitDy=0;exitPerimeter=0;" parent="1" source="108" edge="1">
                    <mxGeometry relative="1" as="geometry">
                        <mxPoint x="-220" y="405" as="targetPoint"/>
                        <mxPoint x="-232.75999999999976" y="368.28999999999996" as="sourcePoint"/>
                        <Array as="points">
                            <mxPoint x="-233" y="405"/>
                        </Array>
                    </mxGeometry>
                </mxCell>
                <mxCell id="93" value="data_admissao" style="edgeLabel;align=center;verticalAlign=middle;resizable=0;points=[];" parent="92" vertex="1" connectable="0">
                    <mxGeometry x="0.5448" y="2" relative="1" as="geometry">
                        <mxPoint x="42" y="12" as="offset"/>
                    </mxGeometry>
                </mxCell>
                <mxCell id="kwLEIUsejKFiPvClbxMu-206" value="turno" style="text;align=center;verticalAlign=middle;resizable=0;points=[];autosize=1;strokeColor=none;fillColor=none;" parent="1" vertex="1">
                    <mxGeometry x="-270" y="400" width="50" height="30" as="geometry"/>
                </mxCell>
                <mxCell id="9" style="edgeStyle=none;html=1;endArrow=oval;endFill=1;fontStyle=1;exitX=0.115;exitY=0.99;exitDx=0;exitDy=0;exitPerimeter=0;" parent="1" edge="1">
                    <mxGeometry relative="1" as="geometry">
                        <mxPoint x="-647" y="239.42" as="targetPoint"/>
                        <mxPoint x="-664.3" y="215.09999999999997" as="sourcePoint"/>
                        <Array as="points">
                            <mxPoint x="-664" y="239.42"/>
                        </Array>
                    </mxGeometry>
                </mxCell>
                <mxCell id="10" value="ID_Medicamento&#10;" style="edgeLabel;align=center;verticalAlign=middle;resizable=0;points=[];" parent="9" vertex="1" connectable="0">
                    <mxGeometry x="0.5443" y="-2" relative="1" as="geometry">
                        <mxPoint x="58" y="4" as="offset"/>
                    </mxGeometry>
                </mxCell>
                <mxCell id="3Tj_bvLMt_tm9WLvLGLQ-179" value="id_cliente" style="text;html=1;align=center;verticalAlign=middle;resizable=0;points=[];autosize=1;strokeColor=none;fillColor=none;" parent="1" vertex="1">
                    <mxGeometry x="170" y="568.5" width="70" height="30" as="geometry"/>
                </mxCell>
                <mxCell id="7" value="" style="edgeStyle=none;endArrow=oval;endFill=0;exitX=0;exitY=0.75;exitDx=0;exitDy=0;" parent="1" edge="1">
                    <mxGeometry relative="1" as="geometry">
                        <mxPoint x="-630" y="275" as="targetPoint"/>
                        <Array as="points">
                            <mxPoint x="-685" y="274.5"/>
                        </Array>
                        <mxPoint x="-685" y="199.5" as="sourcePoint"/>
                    </mxGeometry>
                </mxCell>
                <mxCell id="8" value="Receita_Necessária&#10;" style="edgeLabel;align=center;verticalAlign=middle;resizable=0;points=[];" parent="7" vertex="1" connectable="0">
                    <mxGeometry x="0.3414" y="-2" relative="1" as="geometry">
                        <mxPoint x="98" y="5" as="offset"/>
                    </mxGeometry>
                </mxCell>
                <mxCell id="0jXfrChw-r6oneS9u3Ee-129" value="id_filial" style="text;html=1;align=center;verticalAlign=middle;resizable=0;points=[];autosize=1;strokeColor=none;fillColor=none;" parent="1" vertex="1">
                    <mxGeometry x="-859" y="811" width="60" height="30" as="geometry"/>
                </mxCell>
                <mxCell id="98" value="" style="edgeStyle=elbowEdgeStyle;exitX=0.5;exitY=0.056;exitDx=0;exitDy=0;endArrow=oval;endFill=0;exitPerimeter=0;elbow=vertical;" parent="1" source="108" edge="1">
                    <mxGeometry relative="1" as="geometry">
                        <mxPoint x="-270" y="246.5" as="targetPoint"/>
                        <mxPoint x="-290.0000000000002" y="271.5" as="sourcePoint"/>
                        <Array as="points">
                            <mxPoint x="-280" y="246.5"/>
                        </Array>
                    </mxGeometry>
                </mxCell>
                <mxCell id="99" value="endereco" style="edgeLabel;align=center;verticalAlign=middle;resizable=0;points=[];" parent="98" vertex="1" connectable="0">
                    <mxGeometry x="-0.5748" y="-1" relative="1" as="geometry">
                        <mxPoint x="9" y="-45" as="offset"/>
                    </mxGeometry>
                </mxCell>
                <mxCell id="79" value="" style="edgeStyle=none;exitX=0.987;exitY=0.504;exitDx=0;exitDy=0;endArrow=oval;endFill=0;exitPerimeter=0;" parent="1" edge="1">
                    <mxGeometry relative="1" as="geometry">
                        <mxPoint x="-200" y="745" as="targetPoint"/>
                        <mxPoint x="-239.9999999999997" y="745.1800000000001" as="sourcePoint"/>
                    </mxGeometry>
                </mxCell>
                <mxCell id="80" value="cpf" style="edgeLabel;align=center;verticalAlign=middle;resizable=0;points=[];" parent="79" vertex="1" connectable="0">
                    <mxGeometry x="-0.3878" y="-3" relative="1" as="geometry">
                        <mxPoint x="40" y="-5" as="offset"/>
                    </mxGeometry>
                </mxCell>
                <mxCell id="108" value="&lt;b&gt;Funcionario&lt;/b&gt;" style="rounded=1;whiteSpace=wrap;html=1;" parent="1" vertex="1">
                    <mxGeometry x="-380" y="275" width="180" height="90" as="geometry"/>
                </mxCell>
                <mxCell id="UkZEv0jV3Z5FbrsgkqRG-112" value="" style="edgeStyle=orthogonalEdgeStyle;rounded=0;orthogonalLoop=1;jettySize=auto;html=1;exitX=1;exitY=0.5;exitDx=0;exitDy=0;entryX=0.5;entryY=0;entryDx=0;entryDy=0;endArrow=none;endFill=0;" parent="1" source="108" target="UkZEv0jV3Z5FbrsgkqRG-111" edge="1">
                    <mxGeometry relative="1" as="geometry">
                        <mxPoint x="-200" y="320" as="sourcePoint"/>
                        <mxPoint x="-20" y="500" as="targetPoint"/>
                    </mxGeometry>
                </mxCell>
                <mxCell id="0jXfrChw-r6oneS9u3Ee-161" value="(1,1)" style="edgeLabel;html=1;align=center;verticalAlign=middle;resizable=0;points=[];" parent="UkZEv0jV3Z5FbrsgkqRG-112" connectable="0" vertex="1">
                    <mxGeometry x="-0.8108" y="-2" relative="1" as="geometry">
                        <mxPoint x="-1" y="-11" as="offset"/>
                    </mxGeometry>
                </mxCell>
                <mxCell id="kwLEIUsejKFiPvClbxMu-205" value="id_funcionario" style="text;align=center;verticalAlign=middle;resizable=0;points=[];autosize=1;strokeColor=none;fillColor=none;fontColor=default;" parent="1" vertex="1">
                    <mxGeometry x="-188" y="377" width="90" height="30" as="geometry"/>
                </mxCell>
                <mxCell id="0jXfrChw-r6oneS9u3Ee-111" style="edgeStyle=orthogonalEdgeStyle;rounded=0;orthogonalLoop=1;jettySize=auto;html=1;endArrow=oval;endFill=0;exitX=0.583;exitY=0.056;exitDx=0;exitDy=0;exitPerimeter=0;" parent="1" edge="1">
                    <mxGeometry relative="1" as="geometry">
                        <mxPoint x="-570" y="85" as="targetPoint"/>
                        <Array as="points">
                            <mxPoint x="-590" y="125"/>
                            <mxPoint x="-590" y="85"/>
                        </Array>
                        <mxPoint x="-580.06" y="125.04000000000002" as="sourcePoint"/>
                    </mxGeometry>
                </mxCell>
                <mxCell id="0jXfrChw-r6oneS9u3Ee-112" value="ID_Fornecedor" style="edgeLabel;html=1;align=center;verticalAlign=middle;resizable=0;points=[];" parent="0jXfrChw-r6oneS9u3Ee-111" connectable="0" vertex="1">
                    <mxGeometry x="0.6804" relative="1" as="geometry">
                        <mxPoint x="52" as="offset"/>
                    </mxGeometry>
                </mxCell>
                <mxCell id="66" value="" style="edgeStyle=none;jumpSize=5;exitX=0.14;exitY=0.004;exitDx=0;exitDy=0;strokeWidth=1;fontSize=12;endArrow=oval;endFill=0;startSize=5;exitPerimeter=0;" parent="1" source="2" edge="1">
                    <mxGeometry x="1" y="-28" relative="1" as="geometry">
                        <mxPoint x="-695" y="523.5" as="targetPoint"/>
                        <mxPoint x="-8" y="-20" as="offset"/>
                    </mxGeometry>
                </mxCell>
                <mxCell id="3Tj_bvLMt_tm9WLvLGLQ-133" value="crm" style="text;html=1;align=center;verticalAlign=middle;resizable=0;points=[];autosize=1;strokeColor=none;fillColor=none;" parent="1" vertex="1">
                    <mxGeometry x="-977.5" y="476.44" width="40" height="30" as="geometry"/>
                </mxCell>
                <mxCell id="UkZEv0jV3Z5FbrsgkqRG-111" value="Realiza" style="rhombus;whiteSpace=wrap;html=1;" parent="1" vertex="1">
                    <mxGeometry x="-80" y="342" width="160" height="80" as="geometry"/>
                </mxCell>
                <mxCell id="0jXfrChw-r6oneS9u3Ee-136" style="edgeStyle=orthogonalEdgeStyle;html=1;endArrow=oval;endFill=0;exitX=0;exitY=0.5;exitDx=0;exitDy=0;" parent="1" edge="1">
                    <mxGeometry relative="1" as="geometry">
                        <mxPoint x="-1061" y="750.0000000000001" as="targetPoint"/>
                        <mxPoint x="-1025" y="755" as="sourcePoint"/>
                        <Array as="points">
                            <mxPoint x="-1025" y="750"/>
                        </Array>
                    </mxGeometry>
                </mxCell>
                <mxCell id="3Tj_bvLMt_tm9WLvLGLQ-135" value="prescricao" style="text;html=1;align=center;verticalAlign=middle;resizable=0;points=[];autosize=1;strokeColor=none;fillColor=none;" parent="1" vertex="1">
                    <mxGeometry x="-982.5" y="496.44" width="80" height="30" as="geometry"/>
                </mxCell>
                <mxCell id="YscDw6zFbjl7nn_wglCq-114" value="(1,1)" style="text;html=1;align=center;verticalAlign=middle;resizable=0;points=[];autosize=1;strokeColor=none;fillColor=none;" parent="1" vertex="1">
                    <mxGeometry x="-10" y="583.5" width="50" height="30" as="geometry"/>
                </mxCell>
                <mxCell id="kwLEIUsejKFiPvClbxMu-202" style="edgeStyle=none;html=1;endArrow=oval;endFill=0;exitX=0;exitY=0.75;exitDx=0;exitDy=0;" parent="1" edge="1">
                    <mxGeometry relative="1" as="geometry">
                        <mxPoint x="-365" y="403.25" as="targetPoint"/>
                        <mxPoint x="-380" y="348.5" as="sourcePoint"/>
                        <Array as="points">
                            <mxPoint x="-380" y="402.5"/>
                        </Array>
                    </mxGeometry>
                </mxCell>
                <mxCell id="0jXfrChw-r6oneS9u3Ee-134" style="edgeStyle=none;html=1;exitX=0;exitY=0.75;exitDx=0;exitDy=0;endArrow=oval;endFill=0;" parent="1" source="0jXfrChw-r6oneS9u3Ee-122" edge="1">
                    <mxGeometry relative="1" as="geometry">
                        <mxPoint x="-1060" y="777" as="targetPoint"/>
                        <mxPoint x="-850" y="793.9999999999999" as="sourcePoint"/>
                        <Array as="points">
                            <mxPoint x="-1040" y="777"/>
                        </Array>
                    </mxGeometry>
                </mxCell>
                <mxCell id="48" value="" style="edgeStyle=none;exitX=1;exitY=0.25;exitDx=0;exitDy=0;endArrow=oval;endFill=0;" parent="1" edge="1">
                    <mxGeometry relative="1" as="geometry">
                        <mxPoint x="-490" y="590" as="targetPoint"/>
                        <mxPoint x="-540" y="590" as="sourcePoint"/>
                    </mxGeometry>
                </mxCell>
                <mxCell id="49" value="Data_Venda" style="edgeLabel;align=center;verticalAlign=middle;resizable=0;points=[];fontSize=12;" parent="48" vertex="1" connectable="0">
                    <mxGeometry x="-0.5231" y="-3" relative="1" as="geometry">
                        <mxPoint x="81" y="-3" as="offset"/>
                    </mxGeometry>
                </mxCell>
                <mxCell id="3Tj_bvLMt_tm9WLvLGLQ-206" value="" style="edgeStyle=orthogonalEdgeStyle;rounded=0;orthogonalLoop=1;jettySize=auto;html=1;exitX=0;exitY=0.5;exitDx=0;exitDy=0;entryX=0.5;entryY=0;entryDx=0;entryDy=0;endArrow=none;endFill=0;" parent="1" source="3" target="3Tj_bvLMt_tm9WLvLGLQ-199" edge="1">
                    <mxGeometry relative="1" as="geometry">
                        <mxPoint x="-685" y="170" as="sourcePoint"/>
                        <mxPoint x="-555" y="585" as="targetPoint"/>
                    </mxGeometry>
                </mxCell>
                <mxCell id="3Tj_bvLMt_tm9WLvLGLQ-207" value="(1, n)" style="edgeLabel;html=1;align=center;verticalAlign=middle;resizable=0;points=[];" parent="3Tj_bvLMt_tm9WLvLGLQ-206" connectable="0" vertex="1">
                    <mxGeometry x="-0.8255" y="-1" relative="1" as="geometry">
                        <mxPoint x="7" y="-14" as="offset"/>
                    </mxGeometry>
                </mxCell>
                <mxCell id="0jXfrChw-r6oneS9u3Ee-157" style="edgeStyle=orthogonalEdgeStyle;rounded=0;orthogonalLoop=1;jettySize=auto;html=1;exitX=0.5;exitY=0;exitDx=0;exitDy=0;entryX=0.5;entryY=1;entryDx=0;entryDy=0;endArrow=none;endFill=0;" parent="1" source="0jXfrChw-r6oneS9u3Ee-155" target="3Tj_bvLMt_tm9WLvLGLQ-190" edge="1">
                    <mxGeometry relative="1" as="geometry"/>
                </mxCell>
                <mxCell id="3Tj_bvLMt_tm9WLvLGLQ-185" value="cod_servico" style="text;html=1;align=center;verticalAlign=middle;resizable=0;points=[];autosize=1;strokeColor=none;fillColor=none;" parent="1" vertex="1">
                    <mxGeometry x="340" y="665" width="90" height="30" as="geometry"/>
                </mxCell>
                <mxCell id="UkZEv0jV3Z5FbrsgkqRG-110" style="edgeStyle=orthogonalEdgeStyle;rounded=0;orthogonalLoop=1;jettySize=auto;html=1;exitX=0.5;exitY=1;exitDx=0;exitDy=0;entryX=0.5;entryY=0;entryDx=0;entryDy=0;endArrow=none;endFill=0;" parent="1" source="UkZEv0jV3Z5FbrsgkqRG-111" target="3Tj_bvLMt_tm9WLvLGLQ-190" edge="1">
                    <mxGeometry relative="1" as="geometry">
                        <Array as="points">
                            <mxPoint y="422"/>
                            <mxPoint y="499"/>
                        </Array>
                    </mxGeometry>
                </mxCell>
                <mxCell id="96" value="" style="edgeStyle=elbowEdgeStyle;endArrow=oval;endFill=0;" parent="1" edge="1">
                    <mxGeometry relative="1" as="geometry">
                        <mxPoint x="-220" y="245" as="targetPoint"/>
                        <mxPoint x="-240" y="275" as="sourcePoint"/>
                        <Array as="points">
                            <mxPoint x="-240" y="265"/>
                        </Array>
                    </mxGeometry>
                </mxCell>
                <mxCell id="97" value="telefone" style="edgeLabel;align=center;verticalAlign=middle;resizable=0;points=[];" parent="96" vertex="1" connectable="0">
                    <mxGeometry x="0.5027" relative="1" as="geometry">
                        <mxPoint x="15" y="-21" as="offset"/>
                    </mxGeometry>
                </mxCell>
                <mxCell id="kwLEIUsejKFiPvClbxMu-182" value="" style="edgeStyle=orthogonalEdgeStyle;rounded=0;orthogonalLoop=1;jettySize=auto;html=1;exitX=0.5;exitY=0;exitDx=0;exitDy=0;entryX=0.5;entryY=1;entryDx=0;entryDy=0;endArrow=none;endFill=0;" parent="1" source="2" target="3Tj_bvLMt_tm9WLvLGLQ-201" edge="1">
                    <mxGeometry relative="1" as="geometry">
                        <mxPoint x="-465" y="565" as="sourcePoint"/>
                        <mxPoint x="-225" y="393" as="targetPoint"/>
                    </mxGeometry>
                </mxCell>
                <mxCell id="0jXfrChw-r6oneS9u3Ee-155" value="Consulta" style="rhombus;whiteSpace=wrap;html=1;" parent="1" vertex="1">
                    <mxGeometry x="-100" y="655" width="140" height="80" as="geometry"/>
                </mxCell>
                <mxCell id="kwLEIUsejKFiPvClbxMu-197" style="edgeStyle=none;html=1;endArrow=oval;endFill=0;" parent="1" edge="1">
                    <mxGeometry relative="1" as="geometry">
                        <mxPoint x="-279" y="404.5" as="targetPoint"/>
                        <mxPoint x="-294" y="365" as="sourcePoint"/>
                        <Array as="points">
                            <mxPoint x="-294" y="404.5"/>
                        </Array>
                    </mxGeometry>
                </mxCell>
                <mxCell id="3Tj_bvLMt_tm9WLvLGLQ-187" value="preco" style="text;html=1;align=center;verticalAlign=middle;resizable=0;points=[];autosize=1;strokeColor=none;fillColor=none;" parent="1" vertex="1">
                    <mxGeometry x="350" y="705" width="50" height="30" as="geometry"/>
                </mxCell>
                <mxCell id="3Tj_bvLMt_tm9WLvLGLQ-190" value="&lt;b&gt;Serviço&lt;/b&gt;" style="rounded=1;whiteSpace=wrap;html=1;" parent="1" vertex="1">
                    <mxGeometry x="-90" y="498.5" width="180" height="90" as="geometry"/>
                </mxCell>
                <mxCell id="3Tj_bvLMt_tm9WLvLGLQ-200" style="edgeStyle=orthogonalEdgeStyle;rounded=0;orthogonalLoop=1;jettySize=auto;html=1;exitX=0.5;exitY=0;exitDx=0;exitDy=0;entryX=0;entryY=0.25;entryDx=0;entryDy=0;endArrow=none;endFill=0;" parent="1" source="3Tj_bvLMt_tm9WLvLGLQ-201" target="108" edge="1">
                    <mxGeometry relative="1" as="geometry"/>
                </mxCell>
                <mxCell id="3Tj_bvLMt_tm9WLvLGLQ-202" value="(1,n)" style="text;html=1;align=center;verticalAlign=middle;resizable=0;points=[];autosize=1;strokeColor=none;fillColor=none;" parent="1" vertex="1">
                    <mxGeometry x="-420" y="275" width="50" height="30" as="geometry"/>
                </mxCell>
                <mxCell id="3Tj_bvLMt_tm9WLvLGLQ-161" style="edgeStyle=orthogonalEdgeStyle;rounded=0;orthogonalLoop=1;jettySize=auto;html=1;exitX=0.994;exitY=0.186;exitDx=0;exitDy=0;endArrow=oval;endFill=1;exitPerimeter=0;" parent="1" edge="1">
                    <mxGeometry relative="1" as="geometry">
                        <mxPoint x="775" y="920" as="targetPoint"/>
                        <Array as="points">
                            <mxPoint x="745" y="927"/>
                            <mxPoint x="745" y="915"/>
                        </Array>
                    </mxGeometry>
                </mxCell>
                <mxCell id="kwLEIUsejKFiPvClbxMu-183" value="" style="edgeStyle=none;endArrow=oval;endFill=0;" parent="1" edge="1">
                    <mxGeometry relative="1" as="geometry">
                        <mxPoint x="-488" y="560" as="targetPoint"/>
                        <Array as="points"/>
                        <mxPoint x="-544" y="562" as="sourcePoint"/>
                    </mxGeometry>
                </mxCell>
                <mxCell id="3Tj_bvLMt_tm9WLvLGLQ-134" value="paciente" style="text;html=1;align=center;verticalAlign=middle;resizable=0;points=[];autosize=1;strokeColor=none;fillColor=none;" parent="1" vertex="1">
                    <mxGeometry x="-982.5" y="516.44" width="70" height="30" as="geometry"/>
                </mxCell>
                <mxCell id="QC1EbUprVl7dpRZCjpVZ-170" value="(1,n)" style="text;html=1;align=center;verticalAlign=middle;resizable=0;points=[];autosize=1;strokeColor=none;fillColor=none;" parent="1" vertex="1">
                    <mxGeometry x="-1385" y="672.94" width="50" height="30" as="geometry"/>
                </mxCell>
                <mxCell id="3Tj_bvLMt_tm9WLvLGLQ-186" value="servico" style="text;html=1;align=center;verticalAlign=middle;resizable=0;points=[];autosize=1;strokeColor=none;fillColor=none;" parent="1" vertex="1">
                    <mxGeometry x="340" y="690" width="60" height="30" as="geometry"/>
                </mxCell>
                <mxCell id="3Tj_bvLMt_tm9WLvLGLQ-137" style="edgeStyle=orthogonalEdgeStyle;rounded=0;orthogonalLoop=1;jettySize=auto;html=1;exitX=1;exitY=0.5;exitDx=0;exitDy=0;endArrow=oval;endFill=0;" parent="1" source="3Tj_bvLMt_tm9WLvLGLQ-128" target="3Tj_bvLMt_tm9WLvLGLQ-135" edge="1">
                    <mxGeometry relative="1" as="geometry">
                        <mxPoint x="-982.5" y="511.44" as="targetPoint"/>
                        <mxPoint x="-1007.5" y="511.44" as="sourcePoint"/>
                        <Array as="points">
                            <mxPoint x="-1017.5" y="506.44"/>
                        </Array>
                    </mxGeometry>
                </mxCell>
                <mxCell id="3Tj_bvLMt_tm9WLvLGLQ-201" value="Realiza" style="rhombus;whiteSpace=wrap;html=1;" parent="1" vertex="1">
                    <mxGeometry x="-660" y="357" width="180" height="80" as="geometry"/>
                </mxCell>
                <mxCell id="3Tj_bvLMt_tm9WLvLGLQ-195" value="id_farmaceutico" style="text;html=1;align=center;verticalAlign=middle;resizable=0;points=[];autosize=1;strokeColor=none;fillColor=none;" parent="1" vertex="1">
                    <mxGeometry x="-740" y="490.5" width="110" height="30" as="geometry"/>
                </mxCell>
                <mxCell id="Qk55z1rNBs9D-JOMFlBT-114" value="descricao" style="text;html=1;align=center;verticalAlign=middle;resizable=0;points=[];autosize=1;strokeColor=none;fillColor=none;" parent="1" vertex="1">
                    <mxGeometry x="-982.5" y="540.44" width="80" height="30" as="geometry"/>
                </mxCell>
                <mxCell id="3Tj_bvLMt_tm9WLvLGLQ-188" value="descricao" style="text;html=1;align=center;verticalAlign=middle;resizable=0;points=[];autosize=1;strokeColor=none;fillColor=none;" parent="1" vertex="1">
                    <mxGeometry x="340" y="725" width="70" height="30" as="geometry"/>
                </mxCell>
                <mxCell id="3Tj_bvLMt_tm9WLvLGLQ-131" value="cod_receita" style="text;html=1;align=center;verticalAlign=middle;resizable=0;points=[];autosize=1;strokeColor=none;fillColor=none;" parent="1" vertex="1">
                    <mxGeometry x="-982.5" y="446.44" width="90" height="30" as="geometry"/>
                </mxCell>
                <mxCell id="3Tj_bvLMt_tm9WLvLGLQ-172" style="edgeStyle=orthogonalEdgeStyle;rounded=0;orthogonalLoop=1;jettySize=auto;html=1;exitX=1;exitY=0.279;exitDx=0;exitDy=0;exitPerimeter=0;endArrow=oval;endFill=0;" parent="1" source="3Tj_bvLMt_tm9WLvLGLQ-190" target="3Tj_bvLMt_tm9WLvLGLQ-176" edge="1">
                    <mxGeometry relative="1" as="geometry">
                        <Array as="points">
                            <mxPoint x="119" y="523.5"/>
                            <mxPoint x="140" y="523.5"/>
                            <mxPoint x="140" y="518.5"/>
                        </Array>
                        <mxPoint x="109.15999999999985" y="513.74" as="sourcePoint"/>
                    </mxGeometry>
                </mxCell>
                <mxCell id="3Tj_bvLMt_tm9WLvLGLQ-176" value="cod_servico" style="text;html=1;align=center;verticalAlign=middle;resizable=0;points=[];autosize=1;strokeColor=none;fillColor=none;" parent="1" vertex="1">
                    <mxGeometry x="160" y="503.5" width="90" height="30" as="geometry"/>
                </mxCell>
                <mxCell id="0jXfrChw-r6oneS9u3Ee-122" value="&lt;b&gt;Filial&lt;/b&gt;" style="rounded=1;whiteSpace=wrap;html=1;" parent="1" vertex="1">
                    <mxGeometry x="-1025" y="724" width="180" height="70" as="geometry"/>
                </mxCell>
                <mxCell id="0jXfrChw-r6oneS9u3Ee-160" style="edgeStyle=orthogonalEdgeStyle;rounded=0;orthogonalLoop=1;jettySize=auto;html=1;exitX=1;exitY=0.5;exitDx=0;exitDy=0;entryX=0;entryY=0.5;entryDx=0;entryDy=0;endArrow=none;endFill=0;" parent="1" source="0jXfrChw-r6oneS9u3Ee-146" target="3Tj_bvLMt_tm9WLvLGLQ-190" edge="1">
                    <mxGeometry relative="1" as="geometry"/>
                </mxCell>
                <mxCell id="0jXfrChw-r6oneS9u3Ee-164" value="(1,n)" style="edgeLabel;html=1;align=center;verticalAlign=middle;resizable=0;points=[];" parent="0jXfrChw-r6oneS9u3Ee-160" connectable="0" vertex="1">
                    <mxGeometry x="0.5584" y="-3" relative="1" as="geometry">
                        <mxPoint y="-13" as="offset"/>
                    </mxGeometry>
                </mxCell>
                <mxCell id="3Tj_bvLMt_tm9WLvLGLQ-199" value="Vendido" style="rhombus;whiteSpace=wrap;html=1;" parent="1" vertex="1">
                    <mxGeometry x="-865" y="332" width="180" height="80" as="geometry"/>
                </mxCell>
                <mxCell id="0jXfrChw-r6oneS9u3Ee-130" style="edgeStyle=none;html=1;exitX=0.537;exitY=0.975;exitDx=0;exitDy=0;endArrow=oval;endFill=0;exitPerimeter=0;entryX=0.056;entryY=0.393;entryDx=0;entryDy=0;entryPerimeter=0;" parent="1" edge="1">
                    <mxGeometry relative="1" as="geometry">
                        <mxPoint x="-908.86" y="823.5400000000001" as="targetPoint"/>
                        <mxPoint x="-910.0000000000001" y="793.9999999999999" as="sourcePoint"/>
                        <Array as="points"/>
                    </mxGeometry>
                </mxCell>
                <mxCell id="3Tj_bvLMt_tm9WLvLGLQ-174" style="edgeStyle=orthogonalEdgeStyle;rounded=0;orthogonalLoop=1;jettySize=auto;html=1;endArrow=oval;endFill=0;exitX=1;exitY=0.568;exitDx=0;exitDy=0;exitPerimeter=0;" parent="1" source="3Tj_bvLMt_tm9WLvLGLQ-190" target="UkZEv0jV3Z5FbrsgkqRG-108" edge="1">
                    <mxGeometry relative="1" as="geometry">
                        <Array as="points">
                            <mxPoint x="140" y="549.5"/>
                            <mxPoint x="140" y="558.5"/>
                        </Array>
                        <mxPoint x="111.96000000000004" y="551.7400000000002" as="sourcePoint"/>
                        <mxPoint x="159.8900000000001" y="558.3199999999999" as="targetPoint"/>
                    </mxGeometry>
                </mxCell>
                <mxCell id="3Tj_bvLMt_tm9WLvLGLQ-142" style="edgeStyle=orthogonalEdgeStyle;rounded=0;orthogonalLoop=1;jettySize=auto;html=1;exitX=0.994;exitY=0.338;exitDx=0;exitDy=0;endArrow=oval;endFill=0;exitPerimeter=0;" parent="1" source="3Tj_bvLMt_tm9WLvLGLQ-143" target="3Tj_bvLMt_tm9WLvLGLQ-145" edge="1">
                    <mxGeometry relative="1" as="geometry">
                        <mxPoint x="-1230" y="753.7257142857144" as="targetPoint"/>
                        <Array as="points">
                            <mxPoint x="-1290" y="738.44"/>
                            <mxPoint x="-1270" y="738.44"/>
                            <mxPoint x="-1270" y="743.44"/>
                        </Array>
                    </mxGeometry>
                </mxCell>
                <mxCell id="0jXfrChw-r6oneS9u3Ee-149" value="" style="edgeStyle=orthogonalEdgeStyle;rounded=0;orthogonalLoop=1;jettySize=auto;html=1;exitX=0.5;exitY=0;exitDx=0;exitDy=0;entryX=0.5;entryY=1;entryDx=0;entryDy=0;endArrow=none;endFill=0;" parent="1" source="87" target="0jXfrChw-r6oneS9u3Ee-146" edge="1">
                    <mxGeometry relative="1" as="geometry">
                        <mxPoint x="-330" y="700" as="sourcePoint"/>
                        <mxPoint x="-110" y="545" as="targetPoint"/>
                    </mxGeometry>
                </mxCell>
                <mxCell id="3Tj_bvLMt_tm9WLvLGLQ-180" style="edgeStyle=orthogonalEdgeStyle;rounded=0;orthogonalLoop=1;jettySize=auto;html=1;entryX=-0.006;entryY=0.557;entryDx=0;entryDy=0;entryPerimeter=0;endArrow=oval;endFill=0;exitX=1;exitY=0.724;exitDx=0;exitDy=0;exitPerimeter=0;" parent="1" source="3Tj_bvLMt_tm9WLvLGLQ-190" edge="1">
                    <mxGeometry relative="1" as="geometry">
                        <Array as="points">
                            <mxPoint x="140" y="563.5"/>
                            <mxPoint x="140" y="580.5"/>
                        </Array>
                        <mxPoint x="110" y="563.5" as="sourcePoint"/>
                        <mxPoint x="169.57999999999993" y="580.21" as="targetPoint"/>
                    </mxGeometry>
                </mxCell>
                <mxCell id="3Tj_bvLMt_tm9WLvLGLQ-143" value="&lt;b&gt;Tipo receita&lt;br&gt;&lt;/b&gt;" style="rounded=1;whiteSpace=wrap;html=1;" parent="1" vertex="1">
                    <mxGeometry x="-1470" y="698.44" width="180" height="90" as="geometry"/>
                </mxCell>
                <mxCell id="3Tj_bvLMt_tm9WLvLGLQ-153" style="edgeStyle=orthogonalEdgeStyle;rounded=0;orthogonalLoop=1;jettySize=auto;html=1;exitX=1;exitY=0.75;exitDx=0;exitDy=0;endArrow=oval;endFill=0;" parent="1" source="3Tj_bvLMt_tm9WLvLGLQ-143" target="3Tj_bvLMt_tm9WLvLGLQ-147" edge="1">
                    <mxGeometry relative="1" as="geometry">
                        <mxPoint x="-1260" y="776" as="targetPoint"/>
                        <Array as="points">
                            <mxPoint x="-1280" y="766"/>
                            <mxPoint x="-1280" y="776"/>
                        </Array>
                    </mxGeometry>
                </mxCell>
                <mxCell id="0jXfrChw-r6oneS9u3Ee-125" style="edgeStyle=none;html=1;exitX=0.5;exitY=1;exitDx=0;exitDy=0;endArrow=oval;endFill=0;align=center;" parent="1" edge="1">
                    <mxGeometry relative="1" as="geometry">
                        <mxPoint x="-1230" y="238" as="targetPoint"/>
                        <mxPoint x="-1300" y="237.75" as="sourcePoint"/>
                        <Array as="points">
                            <mxPoint x="-1280" y="238"/>
                        </Array>
                    </mxGeometry>
                </mxCell>
                <mxCell id="0jXfrChw-r6oneS9u3Ee-128" value="Nome_Hospital" style="whiteSpace=wrap;html=1;fillColor=none;strokeColor=none;" parent="1" vertex="1">
                    <mxGeometry x="-1240" y="209.89" width="120" height="20" as="geometry"/>
                </mxCell>
                <mxCell id="kwLEIUsejKFiPvClbxMu-204" value="cargo" style="text;align=center;verticalAlign=middle;resizable=0;points=[];autosize=1;strokeColor=none;fillColor=none;" parent="1" vertex="1">
                    <mxGeometry x="-395" y="398" width="50" height="30" as="geometry"/>
                </mxCell>
                <mxCell id="3Tj_bvLMt_tm9WLvLGLQ-181" style="edgeStyle=orthogonalEdgeStyle;rounded=0;orthogonalLoop=1;jettySize=auto;html=1;endArrow=oval;endFill=1;" parent="1" target="3Tj_bvLMt_tm9WLvLGLQ-185" edge="1">
                    <mxGeometry relative="1" as="geometry">
                        <Array as="points">
                            <mxPoint x="299" y="685"/>
                            <mxPoint x="320" y="685"/>
                            <mxPoint x="320" y="680"/>
                        </Array>
                        <mxPoint x="300" y="685" as="sourcePoint"/>
                    </mxGeometry>
                </mxCell>
                <mxCell id="3Tj_bvLMt_tm9WLvLGLQ-141" style="edgeStyle=orthogonalEdgeStyle;rounded=0;orthogonalLoop=1;jettySize=auto;html=1;exitX=0.994;exitY=0.186;exitDx=0;exitDy=0;endArrow=oval;endFill=1;exitPerimeter=0;" parent="1" source="3Tj_bvLMt_tm9WLvLGLQ-143" target="3Tj_bvLMt_tm9WLvLGLQ-144" edge="1">
                    <mxGeometry relative="1" as="geometry">
                        <mxPoint x="-1240" y="718.44" as="targetPoint"/>
                        <Array as="points">
                            <mxPoint x="-1291" y="725"/>
                            <mxPoint x="-1270" y="725"/>
                            <mxPoint x="-1270" y="713"/>
                        </Array>
                    </mxGeometry>
                </mxCell>
                <mxCell id="A4WGX2mWT120Y1MOlDbz-114" style="edgeStyle=orthogonalEdgeStyle;rounded=0;orthogonalLoop=1;jettySize=auto;html=1;exitX=0.89;exitY=1.001;exitDx=0;exitDy=0;endArrow=oval;endFill=0;entryX=0.013;entryY=0.667;entryDx=0;entryDy=0;entryPerimeter=0;exitPerimeter=0;" parent="1" source="3Tj_bvLMt_tm9WLvLGLQ-128" target="A4WGX2mWT120Y1MOlDbz-116" edge="1">
                    <mxGeometry relative="1" as="geometry">
                        <mxPoint x="-1037.5" y="590.44" as="targetPoint"/>
                        <Array as="points">
                            <mxPoint x="-1020" y="547"/>
                            <mxPoint x="-1020" y="584"/>
                        </Array>
                    </mxGeometry>
                </mxCell>
                <mxCell id="3Tj_bvLMt_tm9WLvLGLQ-128" value="&lt;b&gt;Prescrição Medica&lt;br&gt;&lt;/b&gt;" style="rounded=1;whiteSpace=wrap;html=1;" parent="1" vertex="1">
                    <mxGeometry x="-1197.5" y="456.44" width="180" height="90" as="geometry"/>
                </mxCell>
                <mxCell id="3Tj_bvLMt_tm9WLvLGLQ-139" style="edgeStyle=orthogonalEdgeStyle;rounded=0;orthogonalLoop=1;jettySize=auto;html=1;exitX=0.99;exitY=0.929;exitDx=0;exitDy=0;endArrow=oval;endFill=0;exitPerimeter=0;" parent="1" source="3Tj_bvLMt_tm9WLvLGLQ-128" target="Qk55z1rNBs9D-JOMFlBT-114" edge="1">
                    <mxGeometry relative="1" as="geometry">
                        <mxPoint x="-978.8000000000002" y="556.01" as="targetPoint"/>
                        <mxPoint x="-996.5" y="538.44" as="sourcePoint"/>
                    </mxGeometry>
                </mxCell>
                <mxCell id="0jXfrChw-r6oneS9u3Ee-162" value="(1,n)" style="text;html=1;align=center;verticalAlign=middle;resizable=0;points=[];autosize=1;strokeColor=none;fillColor=none;" parent="1" vertex="1">
                    <mxGeometry x="-10" y="473.5" width="50" height="30" as="geometry"/>
                </mxCell>
                <mxCell id="3Tj_bvLMt_tm9WLvLGLQ-177" value="id_funcionario" style="text;html=1;align=center;verticalAlign=middle;resizable=0;points=[];autosize=1;strokeColor=none;fillColor=none;" parent="1" vertex="1">
                    <mxGeometry x="160" y="528.5" width="100" height="30" as="geometry"/>
                </mxCell>
                <mxCell id="0jXfrChw-r6oneS9u3Ee-127" value="Endereço" style="whiteSpace=wrap;html=1;fillColor=none;strokeColor=none;align=center;" parent="1" vertex="1">
                    <mxGeometry x="-1255" y="225" width="120" height="20" as="geometry"/>
                </mxCell>
                <mxCell id="0jXfrChw-r6oneS9u3Ee-140" value="Faz" style="rhombus;whiteSpace=wrap;html=1;" parent="1" vertex="1">
                    <mxGeometry x="-620" y="705" width="140" height="80" as="geometry"/>
                </mxCell>
                <mxCell id="3Tj_bvLMt_tm9WLvLGLQ-138" style="edgeStyle=orthogonalEdgeStyle;rounded=0;orthogonalLoop=1;jettySize=auto;html=1;exitX=0.994;exitY=0.713;exitDx=0;exitDy=0;endArrow=oval;endFill=0;exitPerimeter=0;" parent="1" source="3Tj_bvLMt_tm9WLvLGLQ-128" target="3Tj_bvLMt_tm9WLvLGLQ-134" edge="1">
                    <mxGeometry relative="1" as="geometry">
                        <mxPoint x="-977.5" y="546.44" as="targetPoint"/>
                        <mxPoint x="-1006.5" y="528.44" as="sourcePoint"/>
                    </mxGeometry>
                </mxCell>
                <mxCell id="0jXfrChw-r6oneS9u3Ee-131" value="nome" style="text;html=1;align=center;verticalAlign=middle;resizable=0;points=[];autosize=1;strokeColor=none;fillColor=none;" parent="1" vertex="1">
                    <mxGeometry x="-913.5" y="809" width="50" height="30" as="geometry"/>
                </mxCell>
                <mxCell id="3Tj_bvLMt_tm9WLvLGLQ-193" value="(1,n)" style="text;html=1;align=center;verticalAlign=middle;resizable=0;points=[];autosize=1;strokeColor=none;fillColor=none;" parent="1" vertex="1">
                    <mxGeometry x="-645" y="100" width="50" height="30" as="geometry"/>
                </mxCell>
                <mxCell id="3Tj_bvLMt_tm9WLvLGLQ-144" value="cod_receita" style="text;html=1;align=center;verticalAlign=middle;resizable=0;points=[];autosize=1;strokeColor=none;fillColor=none;" parent="1" vertex="1">
                    <mxGeometry x="-1240" y="698.44" width="90" height="30" as="geometry"/>
                </mxCell>
                <mxCell id="UkZEv0jV3Z5FbrsgkqRG-108" value="data_realizacao" style="text;html=1;align=center;verticalAlign=middle;resizable=0;points=[];autosize=1;strokeColor=none;fillColor=none;" parent="1" vertex="1">
                    <mxGeometry x="155" y="547" width="110" height="30" as="geometry"/>
                </mxCell>
                <mxCell id="0jXfrChw-r6oneS9u3Ee-135" value="data_abertura" style="text;html=1;align=center;verticalAlign=middle;resizable=0;points=[];autosize=1;strokeColor=none;fillColor=none;" parent="1" vertex="1">
                    <mxGeometry x="-1155" y="762" width="100" height="30" as="geometry"/>
                </mxCell>
                <mxCell id="QC1EbUprVl7dpRZCjpVZ-162" value="(n,n)" style="text;html=1;align=center;verticalAlign=middle;resizable=0;points=[];autosize=1;strokeColor=none;fillColor=none;" parent="1" vertex="1">
                    <mxGeometry x="-1115" y="430" width="50" height="30" as="geometry"/>
                </mxCell>
                <mxCell id="3Tj_bvLMt_tm9WLvLGLQ-183" style="edgeStyle=orthogonalEdgeStyle;rounded=0;orthogonalLoop=1;jettySize=auto;html=1;exitX=1.002;exitY=0.567;exitDx=0;exitDy=0;exitPerimeter=0;entryX=-0.001;entryY=0.494;entryDx=0;entryDy=0;entryPerimeter=0;endArrow=oval;endFill=0;" parent="1" source="3Tj_bvLMt_tm9WLvLGLQ-191" target="3Tj_bvLMt_tm9WLvLGLQ-187" edge="1">
                    <mxGeometry relative="1" as="geometry">
                        <Array as="points">
                            <mxPoint x="320" y="711"/>
                            <mxPoint x="320" y="720"/>
                        </Array>
                        <mxPoint x="301.68000000000006" y="711.1800000000001" as="sourcePoint"/>
                    </mxGeometry>
                </mxCell>
                <mxCell id="3Tj_bvLMt_tm9WLvLGLQ-196" style="edgeStyle=orthogonalEdgeStyle;rounded=0;orthogonalLoop=1;jettySize=auto;html=1;exitX=0.5;exitY=1;exitDx=0;exitDy=0;entryX=0;entryY=0.25;entryDx=0;entryDy=0;endArrow=none;endFill=0;" parent="1" source="3Tj_bvLMt_tm9WLvLGLQ-199" target="2" edge="1">
                    <mxGeometry relative="1" as="geometry"/>
                </mxCell>
                <mxCell id="3Tj_bvLMt_tm9WLvLGLQ-189" style="edgeStyle=orthogonalEdgeStyle;rounded=0;orthogonalLoop=1;jettySize=auto;html=1;exitX=0.997;exitY=0.69;exitDx=0;exitDy=0;entryX=-0.006;entryY=0.557;entryDx=0;entryDy=0;entryPerimeter=0;endArrow=oval;endFill=0;exitPerimeter=0;" parent="1" source="3Tj_bvLMt_tm9WLvLGLQ-191" target="3Tj_bvLMt_tm9WLvLGLQ-188" edge="1">
                    <mxGeometry relative="1" as="geometry">
                        <Array as="points">
                            <mxPoint x="300" y="725"/>
                            <mxPoint x="320" y="725"/>
                            <mxPoint x="320" y="742"/>
                        </Array>
                        <mxPoint x="300" y="720" as="sourcePoint"/>
                    </mxGeometry>
                </mxCell>
                <mxCell id="kwLEIUsejKFiPvClbxMu-207" value="salario" style="text;align=center;verticalAlign=middle;resizable=0;points=[];autosize=1;strokeColor=none;fillColor=none;" parent="1" vertex="1">
                    <mxGeometry x="-310" y="401" width="60" height="30" as="geometry"/>
                </mxCell>
                <mxCell id="85" value="" style="edgeStyle=none;endArrow=oval;endFill=0;exitX=1;exitY=0.75;exitDx=0;exitDy=0;" parent="1" source="87" edge="1">
                    <mxGeometry relative="1" as="geometry">
                        <mxPoint x="-200" y="800" as="targetPoint"/>
                        <mxPoint x="-233.96000000000004" y="780.0000000000001" as="sourcePoint"/>
                        <Array as="points">
                            <mxPoint x="-240" y="800"/>
                            <mxPoint x="-230" y="800"/>
                        </Array>
                    </mxGeometry>
                </mxCell>
                <mxCell id="86" value="data_nascimento" style="edgeLabel;align=center;verticalAlign=middle;resizable=0;points=[];" parent="85" vertex="1" connectable="0">
                    <mxGeometry x="0.2885" y="-2" relative="1" as="geometry">
                        <mxPoint x="73" y="-3" as="offset"/>
                    </mxGeometry>
                </mxCell>
                <mxCell id="QC1EbUprVl7dpRZCjpVZ-166" value="" style="edgeStyle=orthogonalEdgeStyle;rounded=0;orthogonalLoop=1;jettySize=auto;html=1;exitX=0.5;exitY=0;exitDx=0;exitDy=0;entryX=0.5;entryY=1;entryDx=0;entryDy=0;endArrow=none;endFill=0;" parent="1" source="3Tj_bvLMt_tm9WLvLGLQ-143" edge="1">
                    <mxGeometry relative="1" as="geometry">
                        <mxPoint x="-1380.56" y="731.94" as="sourcePoint"/>
                        <mxPoint x="-1380" y="594.44" as="targetPoint"/>
                        <Array as="points"/>
                    </mxGeometry>
                </mxCell>
                <mxCell id="Qk55z1rNBs9D-JOMFlBT-115" value="" style="edgeStyle=orthogonalEdgeStyle;rounded=0;orthogonalLoop=1;jettySize=auto;html=1;exitX=0.25;exitY=0;exitDx=0;exitDy=0;entryX=1;entryY=0.5;entryDx=0;entryDy=0;endArrow=none;endFill=0;" parent="1" source="3" target="kwLEIUsejKFiPvClbxMu-180" edge="1">
                    <mxGeometry relative="1" as="geometry">
                        <Array as="points"/>
                        <mxPoint x="-640" y="125" as="sourcePoint"/>
                        <mxPoint x="-1000" y="195" as="targetPoint"/>
                    </mxGeometry>
                </mxCell>
                <mxCell id="Qk55z1rNBs9D-JOMFlBT-116" style="edgeStyle=orthogonalEdgeStyle;rounded=0;orthogonalLoop=1;jettySize=auto;html=1;exitX=0;exitY=0.5;exitDx=0;exitDy=0;endArrow=none;endFill=0;" parent="1" source="kwLEIUsejKFiPvClbxMu-180" target="4" edge="1">
                    <mxGeometry relative="1" as="geometry"/>
                </mxCell>
                <mxCell id="kwLEIUsejKFiPvClbxMu-180" value="Fornece" style="rhombus;whiteSpace=wrap;html=1;" parent="1" vertex="1">
                    <mxGeometry x="-910" y="10" width="180" height="80" as="geometry"/>
                </mxCell>
                <mxCell id="kwLEIUsejKFiPvClbxMu-208" value="" style="edgeStyle=elbowEdgeStyle;endArrow=oval;endFill=0;elbow=vertical;exitX=0.3;exitY=0.006;exitDx=0;exitDy=0;exitPerimeter=0;" parent="1" edge="1">
                    <mxGeometry relative="1" as="geometry">
                        <mxPoint x="-322" y="245" as="targetPoint"/>
                        <mxPoint x="-343" y="275.54" as="sourcePoint"/>
                        <Array as="points">
                            <mxPoint x="-332" y="245"/>
                        </Array>
                    </mxGeometry>
                </mxCell>
                <mxCell id="kwLEIUsejKFiPvClbxMu-210" value="cpf" style="text;html=1;align=center;verticalAlign=middle;resizable=0;points=[];autosize=1;strokeColor=none;fillColor=none;" parent="1" vertex="1">
                    <mxGeometry x="-353" y="208" width="40" height="30" as="geometry"/>
                </mxCell>
                <mxCell id="kwLEIUsejKFiPvClbxMu-211" style="edgeStyle=orthogonalEdgeStyle;rounded=0;orthogonalLoop=1;jettySize=auto;html=1;endArrow=oval;endFill=0;" parent="1" edge="1">
                    <mxGeometry relative="1" as="geometry">
                        <mxPoint x="-583.25" y="67" as="targetPoint"/>
                        <Array as="points">
                            <mxPoint x="-601" y="67"/>
                        </Array>
                        <mxPoint x="-601" y="125" as="sourcePoint"/>
                    </mxGeometry>
                </mxCell>
                <mxCell id="kwLEIUsejKFiPvClbxMu-212" value="ID_Fornecedor" style="edgeLabel;html=1;align=center;verticalAlign=middle;resizable=0;points=[];" parent="kwLEIUsejKFiPvClbxMu-211" connectable="0" vertex="1">
                    <mxGeometry x="0.6804" relative="1" as="geometry">
                        <mxPoint x="53" y="-2" as="offset"/>
                    </mxGeometry>
                </mxCell>
                <mxCell id="kwLEIUsejKFiPvClbxMu-213" style="edgeStyle=orthogonalEdgeStyle;rounded=0;orthogonalLoop=1;jettySize=auto;html=1;endArrow=oval;endFill=0;" parent="1" edge="1">
                    <mxGeometry relative="1" as="geometry">
                        <mxPoint x="-560.03" y="95.98" as="targetPoint"/>
                        <Array as="points">
                            <mxPoint x="-579.97" y="96"/>
                        </Array>
                        <mxPoint x="-579.97" y="125" as="sourcePoint"/>
                    </mxGeometry>
                </mxCell>
                <mxCell id="kwLEIUsejKFiPvClbxMu-214" value="Fabricante" style="edgeLabel;html=1;align=center;verticalAlign=middle;resizable=0;points=[];" parent="kwLEIUsejKFiPvClbxMu-213" connectable="0" vertex="1">
                    <mxGeometry x="0.6804" relative="1" as="geometry">
                        <mxPoint x="38" y="1" as="offset"/>
                    </mxGeometry>
                </mxCell>
                <mxCell id="Qk55z1rNBs9D-JOMFlBT-120" style="edgeStyle=orthogonalEdgeStyle;rounded=0;orthogonalLoop=1;jettySize=auto;html=1;exitX=0.5;exitY=0;exitDx=0;exitDy=0;entryX=0.006;entryY=0.898;entryDx=0;entryDy=0;entryPerimeter=0;endArrow=none;endFill=0;" parent="1" source="Qk55z1rNBs9D-JOMFlBT-121" target="2" edge="1">
                    <mxGeometry relative="1" as="geometry">
                        <mxPoint x="-640" y="757.33" as="sourcePoint"/>
                        <mxPoint x="-707.4000000000001" y="632.6600000000001" as="targetPoint"/>
                        <Array as="points">
                            <mxPoint x="-730" y="630"/>
                            <mxPoint x="-719" y="630"/>
                        </Array>
                    </mxGeometry>
                </mxCell>
                <mxCell id="Qk55z1rNBs9D-JOMFlBT-122" value="" style="edgeStyle=orthogonalEdgeStyle;rounded=0;orthogonalLoop=1;jettySize=auto;html=1;exitX=1;exitY=0.5;exitDx=0;exitDy=0;entryX=0;entryY=0.5;entryDx=0;entryDy=0;endArrow=none;endFill=0;" parent="1" source="0jXfrChw-r6oneS9u3Ee-122" target="Qk55z1rNBs9D-JOMFlBT-121" edge="1">
                    <mxGeometry relative="1" as="geometry">
                        <mxPoint x="-845" y="759" as="sourcePoint"/>
                        <mxPoint x="-707" y="639" as="targetPoint"/>
                    </mxGeometry>
                </mxCell>
                <mxCell id="Qk55z1rNBs9D-JOMFlBT-121" value="Realiza" style="rhombus;whiteSpace=wrap;html=1;" parent="1" vertex="1">
                    <mxGeometry x="-800" y="720" width="140" height="80" as="geometry"/>
                </mxCell>
                <mxCell id="A4WGX2mWT120Y1MOlDbz-111" style="edgeStyle=orthogonalEdgeStyle;rounded=0;orthogonalLoop=1;jettySize=auto;html=1;entryX=0;entryY=0.5;entryDx=0;entryDy=0;exitX=0.5;exitY=0;exitDx=0;exitDy=0;endArrow=none;endFill=0;" parent="1" source="eocvYtC5DC_iUky7DLq_-108" target="3Tj_bvLMt_tm9WLvLGLQ-128" edge="1">
                    <mxGeometry relative="1" as="geometry">
                        <mxPoint x="-1364.9999999999998" y="516.44" as="sourcePoint"/>
                        <Array as="points">
                            <mxPoint x="-1380" y="500"/>
                            <mxPoint x="-1198" y="500"/>
                        </Array>
                    </mxGeometry>
                </mxCell>
                <mxCell id="A4WGX2mWT120Y1MOlDbz-113" value="(1,1)" style="edgeLabel;html=1;align=center;verticalAlign=middle;resizable=0;points=[];" parent="A4WGX2mWT120Y1MOlDbz-111" connectable="0" vertex="1">
                    <mxGeometry x="0.8231" y="1" relative="1" as="geometry">
                        <mxPoint x="-9" y="-12" as="offset"/>
                    </mxGeometry>
                </mxCell>
                <mxCell id="A4WGX2mWT120Y1MOlDbz-122" style="edgeStyle=orthogonalEdgeStyle;rounded=0;orthogonalLoop=1;jettySize=auto;html=1;exitX=1.004;exitY=0.501;exitDx=0;exitDy=0;entryX=0.5;entryY=0;entryDx=0;entryDy=0;endArrow=none;endFill=0;exitPerimeter=0;" parent="1" source="eocvYtC5DC_iUky7DLq_-112" target="3Tj_bvLMt_tm9WLvLGLQ-128" edge="1">
                    <mxGeometry relative="1" as="geometry">
                        <Array as="points">
                            <mxPoint x="-1107" y="397"/>
                        </Array>
                        <mxPoint x="-1240" y="350.5" as="sourcePoint"/>
                    </mxGeometry>
                </mxCell>
                <mxCell id="Qk55z1rNBs9D-JOMFlBT-124" value="(1,1)" style="text;html=1;align=center;verticalAlign=middle;resizable=0;points=[];autosize=1;strokeColor=none;fillColor=none;strokeWidth=1;fontSize=10;" parent="1" vertex="1">
                    <mxGeometry x="-850" y="734" width="40" height="30" as="geometry"/>
                </mxCell>
                <mxCell id="kwLEIUsejKFiPvClbxMu-217" style="edgeStyle=orthogonalEdgeStyle;rounded=0;orthogonalLoop=1;jettySize=auto;html=1;endArrow=oval;endFill=0;" parent="1" edge="1">
                    <mxGeometry relative="1" as="geometry">
                        <mxPoint x="-549.91" y="110.35000000000001" as="targetPoint"/>
                        <Array as="points">
                            <mxPoint x="-570.88" y="125.37"/>
                            <mxPoint x="-569.88" y="125.37"/>
                            <mxPoint x="-569.88" y="110.37"/>
                        </Array>
                        <mxPoint x="-570" y="125" as="sourcePoint"/>
                    </mxGeometry>
                </mxCell>
                <mxCell id="kwLEIUsejKFiPvClbxMu-218" value="Código_Barras" style="edgeLabel;html=1;align=center;verticalAlign=middle;resizable=0;points=[];" parent="kwLEIUsejKFiPvClbxMu-217" connectable="0" vertex="1">
                    <mxGeometry x="0.6804" relative="1" as="geometry">
                        <mxPoint x="46" y="-1" as="offset"/>
                    </mxGeometry>
                </mxCell>
                <mxCell id="A4WGX2mWT120Y1MOlDbz-116" value="Id_hospital" style="text;html=1;align=center;verticalAlign=middle;resizable=0;points=[];autosize=1;strokeColor=none;fillColor=none;" parent="1" vertex="1">
                    <mxGeometry x="-997.5" y="563.5" width="80" height="30" as="geometry"/>
                </mxCell>
                <mxCell id="Qk55z1rNBs9D-JOMFlBT-125" value="crm" style="text;align=center;verticalAlign=middle;resizable=0;points=[];autosize=1;strokeColor=none;fillColor=none;" parent="1" vertex="1">
                    <mxGeometry x="-495" y="504.5" width="40" height="30" as="geometry"/>
                </mxCell>
                <mxCell id="Qk55z1rNBs9D-JOMFlBT-126" value="(1,n)" style="text;html=1;align=center;verticalAlign=middle;resizable=0;points=[];autosize=1;strokeColor=none;fillColor=none;" parent="1" vertex="1">
                    <mxGeometry x="-740" y="630" width="50" height="30" as="geometry"/>
                </mxCell>
                <mxCell id="Qk55z1rNBs9D-JOMFlBT-129" value="" style="edgeStyle=orthogonalEdgeStyle;rounded=0;orthogonalLoop=1;jettySize=auto;html=1;exitX=0;exitY=0.5;exitDx=0;exitDy=0;endArrow=none;endFill=0;" parent="1" target="Qk55z1rNBs9D-JOMFlBT-128" edge="1">
                    <mxGeometry relative="1" as="geometry">
                        <mxPoint x="-1110" y="540.44" as="targetPoint"/>
                        <mxPoint x="-720" y="588.94" as="sourcePoint"/>
                        <Array as="points">
                            <mxPoint x="-720" y="600"/>
                            <mxPoint x="-937" y="600"/>
                        </Array>
                    </mxGeometry>
                </mxCell>
                <mxCell id="Qk55z1rNBs9D-JOMFlBT-128" value="efetua" style="rhombus;whiteSpace=wrap;html=1;" parent="1" vertex="1">
                    <mxGeometry x="-1027.5" y="618.44" width="180" height="80" as="geometry"/>
                </mxCell>
                <mxCell id="Qk55z1rNBs9D-JOMFlBT-130" style="edgeStyle=orthogonalEdgeStyle;rounded=0;orthogonalLoop=1;jettySize=auto;html=1;exitX=0;exitY=0.5;exitDx=0;exitDy=0;entryX=0.531;entryY=1.002;entryDx=0;entryDy=0;entryPerimeter=0;endArrow=none;endFill=0;" parent="1" source="Qk55z1rNBs9D-JOMFlBT-128" target="3Tj_bvLMt_tm9WLvLGLQ-128" edge="1">
                    <mxGeometry relative="1" as="geometry"/>
                </mxCell>
                <mxCell id="kwLEIUsejKFiPvClbxMu-221" value="Status" style="text;html=1;align=center;verticalAlign=middle;resizable=0;points=[];autosize=1;strokeColor=none;fillColor=none;" parent="1" vertex="1">
                    <mxGeometry x="-1100" y="320" width="60" height="30" as="geometry"/>
                </mxCell>
                <mxCell id="eocvYtC5DC_iUky7DLq_-108" value="possui" style="rhombus;whiteSpace=wrap;html=1;" parent="1" vertex="1">
                    <mxGeometry x="-1470" y="518.5" width="180" height="80" as="geometry"/>
                </mxCell>
                <mxCell id="kwLEIUsejKFiPvClbxMu-222" style="edgeStyle=orthogonalEdgeStyle;rounded=0;orthogonalLoop=1;jettySize=auto;html=1;endArrow=oval;endFill=0;" parent="1" edge="1">
                    <mxGeometry relative="1" as="geometry">
                        <mxPoint x="-510" y="500" as="targetPoint"/>
                        <mxPoint x="-572" y="558.5" as="sourcePoint"/>
                        <Array as="points">
                            <mxPoint x="-572" y="500"/>
                        </Array>
                    </mxGeometry>
                </mxCell>
                <mxCell id="kwLEIUsejKFiPvClbxMu-223" value="Receita_Apresentada" style="text;whiteSpace=wrap;" parent="1" vertex="1">
                    <mxGeometry x="-505" y="486.5" width="150" height="40" as="geometry"/>
                </mxCell>
                <mxCell id="eocvYtC5DC_iUky7DLq_-112" value="possui" style="rhombus;whiteSpace=wrap;html=1;" parent="1" vertex="1">
                    <mxGeometry x="-1410" y="357" width="180" height="80" as="geometry"/>
                </mxCell>
                <mxCell id="kwLEIUsejKFiPvClbxMu-224" style="edgeStyle=orthogonalEdgeStyle;rounded=0;orthogonalLoop=1;jettySize=auto;html=1;endArrow=oval;endFill=0;" parent="1" edge="1">
                    <mxGeometry relative="1" as="geometry">
                        <mxPoint x="-480" y="541.3800000000001" as="targetPoint"/>
                        <mxPoint x="-550" y="558.5" as="sourcePoint"/>
                        <Array as="points">
                            <mxPoint x="-550" y="541.21"/>
                        </Array>
                    </mxGeometry>
                </mxCell>
                <mxCell id="kwLEIUsejKFiPvClbxMu-225" value="id_filial" style="text;align=center;verticalAlign=middle;resizable=0;points=[];autosize=1;strokeColor=none;fillColor=none;" parent="1" vertex="1">
                    <mxGeometry x="-487" y="526.5" width="60" height="30" as="geometry"/>
                </mxCell>
                <mxCell id="eocvYtC5DC_iUky7DLq_-115" style="edgeStyle=none;html=1;exitX=0.5;exitY=1;exitDx=0;exitDy=0;endArrow=oval;endFill=0;" parent="1" edge="1">
                    <mxGeometry relative="1" as="geometry">
                        <mxPoint x="-1230" y="220.25" as="targetPoint"/>
                        <mxPoint x="-1300" y="220" as="sourcePoint"/>
                        <Array as="points">
                            <mxPoint x="-1280" y="220.25"/>
                        </Array>
                    </mxGeometry>
                </mxCell>
                <mxCell id="eocvYtC5DC_iUky7DLq_-116" style="edgeStyle=none;html=1;exitX=0.5;exitY=1;exitDx=0;exitDy=0;endArrow=oval;endFill=1;" parent="1" edge="1">
                    <mxGeometry relative="1" as="geometry">
                        <mxPoint x="-1230" y="200.25" as="targetPoint"/>
                        <mxPoint x="-1300" y="200" as="sourcePoint"/>
                        <Array as="points">
                            <mxPoint x="-1280" y="200.25"/>
                        </Array>
                    </mxGeometry>
                </mxCell>
                <mxCell id="K0L_mUC8udoVy3rCwuKF-108" value="(1,1)" style="text;html=1;align=center;verticalAlign=middle;resizable=0;points=[];autosize=1;strokeColor=none;fillColor=none;" parent="1" vertex="1">
                    <mxGeometry x="-775" y="578" width="50" height="30" as="geometry"/>
                </mxCell>
                <mxCell id="x4bGVZBUqrX40MsfPA94-108" value="(1,n)" style="text;html=1;align=center;verticalAlign=middle;resizable=0;points=[];autosize=1;strokeColor=none;fillColor=none;" parent="1" vertex="1">
                    <mxGeometry x="-1145" y="548" width="50" height="30" as="geometry"/>
                </mxCell>
                <mxCell id="kwLEIUsejKFiPvClbxMu-226" value="endereço" style="text;html=1;align=center;verticalAlign=middle;resizable=0;points=[];autosize=1;strokeColor=none;fillColor=none;" parent="1" vertex="1">
                    <mxGeometry x="-1011.5" y="803" width="70" height="30" as="geometry"/>
                </mxCell>
                <mxCell id="kwLEIUsejKFiPvClbxMu-228" value="status" style="text;html=1;align=center;verticalAlign=middle;resizable=0;points=[];autosize=1;strokeColor=none;fillColor=none;" parent="1" vertex="1">
                    <mxGeometry x="-1113" y="735" width="60" height="30" as="geometry"/>
                </mxCell>
            </root>
        </mxGraphModel>
    </diagram>
</mxfile>